# xmcd CD database file
#
# Track frame offsets:
#	150
#	25933
#	53596
#	85320
#	114757
#	166759
#
# Disc length: 2836 seconds
#
# Revision: 0
# Processed by: cddbd v1.5.1PL2 Copyright (c) Steve Scherf et al.
# Submitted via: CDex 1.51
#
DISCID=380b1206
DTITLE=Amalgam - Another Time
DYEAR=1976
DGENRE=Jazz
TTITLE0=Jive
TTITLE1=Suzie Jay
TTITLE2=Tribute To 'Trane
TTITLE3=Just East Of Mars
TTITLE4=Another Time
TTITLE5=Chips
EXTD=YEAR: 1976
EXTT0=
EXTT1=
EXTT2=
EXTT3=
EXTT4=
EXTT5=
PLAYORDER=
